<?xml version="1.0" standalone="no"?>
<!DOCTYPE svg PUBLIC "-//W3C//DTD SVG 20010904//EN"
 "http://www.w3.org/TR/2001/REC-SVG-20010904/DTD/svg10.dtd">
<svg version="1.0" xmlns="http://www.w3.org/2000/svg"
 width="512.000000pt" height="512.000000pt" viewBox="0 0 512.000000 512.000000"
 preserveAspectRatio="xMidYMid meet">

<g transform="translate(0.000000,512.000000) scale(0.100000,-0.100000)"
fill="white" stroke="none">
<path d="M3366 4914 c-141 -34 -102 2 -1167 -1063 -847 -848 -990 -995 -1017
-1047 -90 -173 -79 -372 28 -531 23 -35 429 -447 1007 -1024 1050 -1047 1008
-1009 1154 -1044 174 -41 350 9 475 135 165 164 200 396 92 604 -27 52 -148
177 -807 839 l-776 777 776 778 c659 661 780 786 807 838 108 208 73 440 -92
604 -125 126 -306 176 -480 134z"/>
</g>
</svg>
