<?xml version="1.0" standalone="no"?>
<!DOCTYPE svg PUBLIC "-//W3C//DTD SVG 20010904//EN"
 "http://www.w3.org/TR/2001/REC-SVG-20010904/DTD/svg10.dtd">
<svg version="1.0" xmlns="http://www.w3.org/2000/svg"
 width="512.000000pt" height="512.000000pt" viewBox="0 0 512.000000 512.000000"
 preserveAspectRatio="xMidYMid meet">

<g transform="translate(0.000000,512.000000) scale(0.100000,-0.100000)"
fill="white" stroke="none">
<path d="M1512 4916 c-131 -32 -268 -137 -331 -255 -58 -110 -76 -250 -46
-366 37 -140 20 -121 854 -957 l776 -778 -776 -778 c-834 -836 -817 -817 -854
-957 -58 -226 57 -476 268 -578 119 -58 224 -70 346 -42 147 35 102 -5 1172
1064 1069 1070 1029 1025 1064 1172 19 81 19 157 0 238 -35 147 5 102 -1064
1172 -847 847 -995 990 -1047 1017 -112 58 -246 76 -362 48z"/>
</g>
</svg>
